<?xml version="1.0" encoding="UTF-8"?>
<svg id="Layer_1" data-name="Layer 1" xmlns="http://www.w3.org/2000/svg" viewBox="0 0 570.47 205">
  <defs>
    <style>
      .cls-1 {
        fill: #fff;
      }

      .cls-2 {
        fill: #c6d680;
      }

      .cls-3 {
        fill: #833c2a;
      }
    </style>
  </defs>
  <path class="cls-2" d="M55.4.42c34.38-4.67,36.95,30.21,44.68,53.57,10,30.21,28.45,46.08,15.81,80.71-19.87,54.43-98.29,49.65-113.33-5.18-7.94-28.94,4.26-39.36,13.82-63.11C25.36,44.11,25.84,4.44,55.4.42ZM55.42,76.36c-30.33,3.68-42.73,43.22-20.04,63.63,18.68,16.81,49.26,10.44,58.64-12.97,10.55-26.35-10.46-54.07-38.6-50.66Z"/>
  <path class="cls-3" d="M55.42,76.36c28.14-3.41,49.15,24.31,38.6,50.66-9.38,23.42-39.96,29.79-58.64,12.97-22.68-20.42-10.29-59.96,20.04-63.63Z"/>
  <g>
    <path class="cls-1" d="M148.56,85.54v-17.4h11.12v-5.85c0-8.36,2.78-14.92,8.34-19.68,5.56-4.75,12.67-7.13,21.32-7.13,2.76,0,5.77.55,9.05,1.64,3.28,1.09,5.77,2.35,7.49,3.78l-6.42,15.54c-2.95-1.52-5.9-2.28-8.84-2.28-2.76,0-4.9.98-6.42,2.92-1.52,1.95-2.28,4.59-2.28,7.91v3.14h16.11l4.13,17.4h-20.25v50.19h-22.24v-50.19h-11.12Z"/>
    <path class="cls-1" d="M235.68,135.73h-22.39v-69.01h11.41l6.27,9.84c3.33-2.57,7.18-4.87,11.55-6.92,4.37-2.04,8.32-3.07,11.83-3.07l4.42,17.82c-3.33,0-7.15.93-11.48,2.78-4.33,1.85-8.2,4.26-11.62,7.2v41.35Z"/>
    <path class="cls-1" d="M278.74,57.02c-3.33,0-6.2-1.21-8.63-3.64-2.42-2.42-3.64-5.3-3.64-8.63s1.21-6.35,3.64-8.77,5.3-3.64,8.63-3.64,6.34,1.21,8.77,3.64c2.42,2.42,3.64,5.35,3.64,8.77s-1.21,6.2-3.64,8.63c-2.42,2.42-5.35,3.64-8.77,3.64ZM267.62,135.73v-69.16h22.39v69.16h-22.39Z"/>
    <path class="cls-1" d="M370.85,35.06v100.67h-11.41l-4.13-5.56c-2.85,2.19-5.94,3.92-9.27,5.2-3.33,1.28-6.75,1.92-10.27,1.92-10.74,0-19.3-3.14-25.67-9.41-6.37-6.27-9.55-15.16-9.55-26.66s3.23-20.51,9.7-27.02c6.46-6.51,15.26-9.77,26.38-9.77,3.9,0,7.84.95,11.83,2.85v-30.66l22.39-1.57ZM327.51,114.55c2.57,3.28,6.13,4.92,10.69,4.92,3.14,0,6.56-1.33,10.27-3.99v-29.52c-3.42-2.38-7.04-3.56-10.84-3.56-4.18,0-7.56,1.71-10.12,5.13-2.57,3.42-3.85,7.94-3.85,13.55s1.28,10.2,3.85,13.47Z"/>
    <path class="cls-1" d="M453.27,66.71v71.72c0,6.08-1.55,11.41-4.63,15.97-3.09,4.56-7.46,8.06-13.12,10.48-5.66,2.42-12.19,3.64-19.61,3.64-3.8,0-8.84-.71-15.11-2.14-6.27-1.43-11.26-3.38-14.97-5.85l6.7-15.68c7.7,3.8,15.07,5.7,22.1,5.7,4.85,0,8.77-1.12,11.76-3.35,2.99-2.23,4.49-5.2,4.49-8.91v-3.85c-4.28,1.9-8.51,2.85-12.69,2.85-10.74,0-19.3-3.14-25.67-9.41-6.37-6.27-9.55-15.16-9.55-26.66s3.23-20.51,9.7-27.02c6.46-6.51,15.26-9.77,26.38-9.77,3.23,0,6.51.64,9.84,1.92,3.33,1.28,6.42,3.11,9.27,5.49l3.71-5.13h11.41ZM430.88,115.48v-29.52c-3.42-2.38-7.04-3.56-10.84-3.56-4.18,0-7.56,1.71-10.12,5.13-2.57,3.42-3.85,7.94-3.85,13.55s1.28,10.2,3.85,13.47c2.57,3.28,6.13,4.92,10.69,4.92,3.14,0,6.56-1.33,10.27-3.99Z"/>
    <path class="cls-1" d="M480.22,57.02c-3.33,0-6.2-1.21-8.63-3.64-2.42-2.42-3.64-5.3-3.64-8.63s1.21-6.35,3.64-8.77c2.42-2.42,5.3-3.64,8.63-3.64s6.34,1.21,8.77,3.64c2.42,2.42,3.64,5.35,3.64,8.77s-1.21,6.2-3.64,8.63c-2.42,2.42-5.35,3.64-8.77,3.64ZM469.09,135.73v-69.16h22.39v69.16h-22.39Z"/>
    <path class="cls-1" d="M570.47,107.21h-44.35c2.09,8.08,8.17,12.12,18.25,12.12,6.56,0,13.07-1.8,19.53-5.42l6.27,15.54c-3.23,2.38-7.2,4.28-11.91,5.7s-9.86,2.14-15.47,2.14c-12.64,0-22.6-3.18-29.87-9.55-7.27-6.37-10.91-15.21-10.91-26.52,0-7.41,1.52-13.9,4.56-19.46,3.04-5.56,7.29-9.84,12.76-12.83,5.46-2.99,11.71-4.49,18.75-4.49s12.98,1.62,17.82,4.85c4.85,3.23,8.48,7.56,10.91,12.98,2.42,5.42,3.64,11.5,3.64,18.25v6.7ZM525.84,94.52h23.38c-.57-3.52-1.83-6.35-3.78-8.48-1.95-2.14-4.59-3.21-7.91-3.21-3.14,0-5.77,1.07-7.91,3.21-2.14,2.14-3.4,4.97-3.78,8.48Z"/>
  </g>
  <text/>
</svg>